<?xml version="1.0" encoding="UTF-8" standalone="no"?>
<!DOCTYPE svg PUBLIC "-//W3C//DTD SVG 1.1//EN" "http://www.w3.org/Graphics/SVG/1.1/DTD/svg11.dtd">
<svg width="220" height="36" viewBox="0 0 559 92" version="1.1" xmlns="http://www.w3.org/2000/svg" xmlns:xlink="http://www.w3.org/1999/xlink" xml:space="preserve" xmlns:serif="http://www.serif.com/" style="fill-rule:evenodd;clip-rule:evenodd;stroke-linejoin:round;stroke-miterlimit:2;">
    <g transform="matrix(1,0,0,1,-352.409,-615.295)">
        <g>
            <g transform="matrix(1,0,0,1,371.219,616.769)">
                <path d="M0,63.16L0,13.091L-18.81,13.091L-18.81,0L33.1,0L33.1,13.091L14.29,13.091L14.29,63.16L0,63.16Z" style="fill:white;fill-rule:nonzero;"/>
            </g>
            <g transform="matrix(1,0,0,1,412.451,679.929)">
                <path d="M0,-63.16L46.194,-63.16L46.194,-50.253L14.29,-50.253L14.29,-38.357L43.796,-38.357L43.796,-25.818L14.29,-25.818L14.29,-12.911L46.286,-12.911L46.286,0L0,0L0,-63.16Z" style="fill:white;fill-rule:nonzero;"/>
            </g>
            <g transform="matrix(1,0,0,1,482.094,648.484)">
                <path d="M0,-0.274C0,10.882 8.113,19.365 19.271,19.365C27.015,19.365 32.916,15.309 36.511,9.13L47.669,16.877C41.584,26.833 32.27,32.734 19.455,32.734C0,32.734 -14.569,18.26 -14.569,-0.274C-14.569,-18.624 -0.094,-33.008 19.084,-33.008C31.533,-33.008 41.4,-27.844 47.393,-17.241L36.051,-9.404C32.362,-15.489 26.831,-19.729 18.808,-19.729C8.113,-19.729 0,-11.155 0,-0.274" style="fill:white;fill-rule:nonzero;"/>
            </g>
            <g transform="matrix(1,0,0,1,620.06,654.778)">
                <path d="M0,-12.26L0,25.45L-13.738,25.45L-13.738,-37.71L3.413,-37.71L21.947,4.06L40.481,-37.71L57.628,-37.71L57.628,25.45L43.616,25.45L43.616,-12.444L26.465,25.45L17.061,25.45L0,-12.26Z" style="fill:white;fill-rule:nonzero;"/>
            </g>
            <g transform="matrix(1,0,0,1,716.06,665.197)">
                <path d="M0,-33.098L-8.115,-8.479L8.205,-8.479L0,-33.098ZM12.445,4.15L-12.359,4.15L-15.952,15.031L-30.614,15.031L-8.299,-48.129L9.22,-48.129L31.441,15.031L16.042,15.031L12.445,4.15Z" style="fill:white;fill-rule:nonzero;"/>
            </g>
            <g transform="matrix(1,0,0,1,781.87,615.779)">
                <path d="M0,65.738C-20.007,65.738 -34.023,51.079 -34.023,32.824C-34.023,14.842 -20.47,0 0,0C11.802,0 20.928,4.792 26.645,13.001L16.136,21.942C11.892,16.594 6.638,13.369 0,13.369C-10.971,13.369 -19.455,21.48 -19.455,33.192C-19.455,44.258 -11.528,52.463 -0.368,52.463C8.115,52.463 13.738,47.576 16.042,41.491L-0.737,41.491L-0.737,29.042L31.993,29.042L31.993,32.73C31.993,51.632 18.902,65.738 0,65.738" style="fill:white;fill-rule:nonzero;"/>
            </g>
            <g transform="matrix(1,0,0,1,0,408.68)">
                <rect x="824.688" y="207.933" width="14.294" height="63.434" style="fill:white;"/>
            </g>
            <g transform="matrix(1,0,0,1,577.937,680.227)">
                <path d="M0,-63.478L0,-38.886L-23.433,-38.886L-23.433,-63.478L-37.727,-63.478L-37.727,0L-23.433,0L-23.433,-24.592L0,-24.592L0,0L14.294,0L14.294,-63.478L0,-63.478Z" style="fill:white;fill-rule:nonzero;"/>
            </g>
            <g transform="matrix(1,0,0,1,863.378,648.303)">
                <path d="M0,-0.274C0,10.882 8.113,19.365 19.271,19.365C27.015,19.365 32.916,15.309 36.511,9.13L47.669,16.877C41.584,26.833 32.27,32.734 19.455,32.734C0,32.734 -14.569,18.26 -14.569,-0.274C-14.569,-18.624 -0.094,-33.008 19.084,-33.008C31.533,-33.008 41.4,-27.844 47.393,-17.241L36.051,-9.404C32.362,-15.489 26.831,-19.729 18.808,-19.729C8.113,-19.729 0,-11.155 0,-0.274" style="fill:white;fill-rule:nonzero;"/>
            </g>
            <g transform="matrix(1,0,0,1,832.131,685.334)">
                <path d="M0,21.89C-6.035,21.89 -10.945,16.98 -10.945,10.945C-10.945,4.91 -6.035,0 0,0C6.035,0 10.945,4.91 10.945,10.945C10.945,16.98 6.035,21.89 0,21.89" style="fill:rgb(231,36,24);fill-rule:nonzero;"/>
            </g>
            <g transform="matrix(1,0,0,1,832.131,699.819)">
                <path d="M0,-7.079C-1.952,-7.079 -3.539,-5.492 -3.539,-3.54C-3.539,-1.588 -1.952,-0.001 0,-0.001C1.952,-0.001 3.539,-1.588 3.539,-3.54C3.539,-5.492 1.952,-7.079 0,-7.079M0,1.51C-2.784,1.51 -5.05,-0.756 -5.05,-3.54C-5.05,-6.324 -2.784,-8.589 0,-8.589C2.784,-8.589 5.049,-6.324 5.049,-3.54C5.049,-0.756 2.784,1.51 0,1.51" style="fill:rgb(216,12,24);fill-rule:nonzero;"/>
            </g>
            <g transform="matrix(1,0,0,1,832.131,705.689)">
                <path d="M0,-18.82C-5.189,-18.82 -9.411,-14.599 -9.411,-9.41C-9.411,-4.22 -5.189,0.001 0,0.001C5.189,0.001 9.411,-4.22 9.411,-9.41C9.411,-14.599 5.189,-18.82 0,-18.82M0,1.535C-6.035,1.535 -10.945,-3.374 -10.945,-9.41C-10.945,-15.445 -6.035,-20.355 0,-20.355C6.035,-20.355 10.945,-15.445 10.945,-9.41C10.945,-3.374 6.035,1.535 0,1.535" style="fill:rgb(216,12,24);fill-rule:nonzero;"/>
            </g>
            <g transform="matrix(1,0,0,1,832.131,702.756)">
                <path d="M0,-12.954C-3.571,-12.954 -6.477,-10.049 -6.477,-6.477C-6.477,-2.906 -3.571,0 0,0C3.572,0 6.477,-2.906 6.477,-6.477C6.477,-10.049 3.572,-12.954 0,-12.954M0,1.51C-4.404,1.51 -7.988,-2.073 -7.988,-6.477C-7.988,-10.881 -4.404,-14.464 0,-14.464C4.404,-14.464 7.987,-10.881 7.987,-6.477C7.987,-2.073 4.404,1.51 0,1.51" style="fill:rgb(216,12,24);fill-rule:nonzero;"/>
            </g>
            <g transform="matrix(1,0,0,1,832.131,694.184)">
                <path d="M0,4.19C-1.157,4.19 -2.095,3.252 -2.095,2.095C-2.095,0.938 -1.157,0 0,0C1.157,0 2.095,0.938 2.095,2.095C2.095,3.252 1.157,4.19 0,4.19" style="fill:rgb(216,12,24);fill-rule:nonzero;"/>
            </g>
        </g>
    </g>
</svg>
